<?xml version="1.0" encoding="UTF-8"?><svg id="Object" xmlns="http://www.w3.org/2000/svg" viewBox="0 0 400 400"><path d="M323.02,120.19c0-4.47-1.07-8.14-3.96-11.02-1.86-1.84-22.16-22.13-32.59-32.55-3.67-3.66-10.58-6.11-15.73-6.1-5.16,0-173.38,.11-173.38,.11-11.34,.01-20.51,9.2-20.51,20.53l.16,217.81c0,11.34,9.19,20.51,20.52,20.51l205.12-.15c11.32,0,20.5-9.2,20.5-20.51,0,0-.13-185.86-.13-188.63Zm-62.54-36.98l.05,70.11c0,6.1-6.27,11.95-12.36,11.95l-89.13,.05c-6.1,.01-11.81-5.82-11.81-11.92l-.04-70.12,113.29-.08Zm28.15,225.25H111.38v-97.96c0-7.37,5.73-13.37,12.81-13.37h151.63c7.08,0,12.81,5.99,12.81,13.37v97.96Z"/><path d="M247.83,147.6c0,3.82-3.1,6.94-6.92,6.94h-23.26c-3.83,.03-6.93-3.09-6.93-6.91l-.03-46.7c-.01-3.82,3.09-6.94,6.93-6.94h23.23c3.85-.03,6.93,3.08,6.95,6.91l.03,46.7Z"/></svg>